<?xml version="1.0" encoding="UTF-8" standalone="no"?>
<svg
   xmlns:dc="http://purl.org/dc/elements/1.1/"
   xmlns:cc="http://creativecommons.org/ns#"
   xmlns:rdf="http://www.w3.org/1999/02/22-rdf-syntax-ns#"
   xmlns:svg="http://www.w3.org/2000/svg"
   xmlns="http://www.w3.org/2000/svg"
   xmlns:sodipodi="http://sodipodi.sourceforge.net/DTD/sodipodi-0.dtd"
   xmlns:inkscape="http://www.inkscape.org/namespaces/inkscape"
   width="200"
   height="200"
   viewBox="0 0 52.916667 52.916668"
   version="1.1"
   id="svg8"
   inkscape:version="1.0.1 (3bc2e813f5, 2020-09-07)"
   sodipodi:docname="rrrrr.svg">
  <defs
     id="defs2">
    <rect
       x="92.226189"
       y="223.00595"
       width="55.940475"
       height="42.333332"
       id="rect24-5" />
    <rect
       x="92.226189"
       y="223.00595"
       width="55.940475"
       height="42.333332"
       id="rect2030" />
  </defs>
  <sodipodi:namedview
     id="base"
     pagecolor="#ffffff"
     bordercolor="#666666"
     borderopacity="1.0"
     inkscape:pageopacity="0.0"
     inkscape:pageshadow="2"
     inkscape:zoom="1.0108546"
     inkscape:cx="395.39545"
     inkscape:cy="83.121448"
     inkscape:document-units="mm"
     inkscape:current-layer="layer1"
     inkscape:document-rotation="0"
     showgrid="false"
     inkscape:window-width="1920"
     inkscape:window-height="1017"
     inkscape:window-x="-8"
     inkscape:window-y="-8"
     inkscape:window-maximized="1"
     units="px" />
  <metadata
     id="metadata5">
    <rdf:RDF>
      <cc:Work
         rdf:about="">
        <dc:format>image/svg+xml</dc:format>
        <dc:type
           rdf:resource="http://purl.org/dc/dcmitype/StillImage" />
        <dc:title></dc:title>
      </cc:Work>
    </rdf:RDF>
  </metadata>
  <g
     inkscape:label="Layer 1"
     inkscape:groupmode="layer"
     id="layer1">
    <g
       aria-label="M"
       transform="matrix(2.7967023,0,0,3.2736488,-244.19875,-407.06258)"
       id="text16-04-0"
       style="font-style:normal;font-weight:normal;font-size:10.5833px;line-height:1.25;font-family:sans-serif;white-space:pre;shape-inside:url(#rect18);fill:#1c4675;fill-opacity:1;stroke:none;stroke-width:0.196128;stroke-opacity:1">
      <path
         id="path164-8-9"
         style="font-style:normal;font-variant:normal;font-weight:normal;font-stretch:normal;font-size:25.4px;font-family:'Colonna MT';-inkscape-font-specification:'Colonna MT';fill:#1c4675;fill-opacity:1;stroke:none;stroke-width:0.196128;stroke-opacity:1"
         d="m 96.805859,134.48109 c 1.322915,-2.88148 2.645836,-5.76295 3.968751,-8.64443 0.31833,0 0.63665,0 0.95498,0 0.1943,4.35736 0.38861,8.71471 0.58291,13.07207 -0.88012,-0.0925 -1.76005,0.19704 -2.636588,0.059 0.650918,-0.53343 1.455338,-1.06495 1.393138,-2.02459 0.18065,-1.5062 -0.0953,-3.01801 -0.0898,-4.52762 -0.064,-1.43641 -0.12811,-2.87282 -0.19217,-4.30923 -1.322918,2.89801 -2.64583,5.79603 -3.968748,8.69404 -1.711522,-3.65456 -3.423049,-7.30911 -5.134571,-10.96367 0.3514,0 0.7028,0 1.0542,0 1.35595,2.88145 2.71207,5.7631 4.067918,8.64443 z m 6.424411,4.42764 c -0.19844,-4.35736 -0.39687,-8.71471 -0.59531,-13.07207 0.99008,0.0129 1.97882,-0.059 2.96416,-0.14883 -0.44804,0.58564 -1.44649,0.59843 -1.57375,1.47498 -0.45286,1.23943 -0.10825,2.57217 -0.13064,3.85318 0.10543,1.96604 0.10556,3.94382 0.35574,5.89811 0.0998,0.94634 0.79309,1.73255 1.65213,1.97227 -0.55202,0.3879 -1.53649,-0.0922 -2.26814,0.0289 -0.1347,-0.004 -0.26944,-0.006 -0.40419,-0.006 z M 90.666699,125.83666 c 1.885154,4.01423 3.770315,8.02845 5.655469,12.04268 -0.190169,0.39274 -0.380339,0.78548 -0.570508,1.17822 -1.711523,-3.64629 -3.423047,-7.29258 -5.13457,-10.93887 -0.09088,3.02634 -0.353548,6.05177 -0.313131,9.07942 0.122495,0.85077 0.848034,1.48792 1.630227,1.75259 -0.835462,0.20594 -1.683183,-0.15581 -2.529858,-0.0293 -0.502466,-0.0539 -1.566157,0.24165 -1.70502,0.031 0.703476,-0.54563 1.422298,-1.1394 1.463984,-2.1085 0.307108,-1.53505 0.177415,-3.11218 0.309637,-4.66527 0.07133,-1.67987 0.142653,-3.35974 0.21398,-5.03961 -0.383775,-0.78713 -1.432793,-0.77401 -1.964206,-1.38593 0.98251,-0.0398 1.960154,0.11641 2.943996,0.0836 z" />
    </g>
  </g>
</svg>
